<svg xmlns="http://www.w3.org/2000/svg" width="900" height="660" viewBox="0 0 900 660" xmlns:c2pa="http://c2pa.org/manifest"><metadata><c2pa:manifest>AAAWgmp1bWIAAAAeanVtZGMycGEAEQAQgAAAqgA4m3EDYzJwYQAAABZcanVtYgAAAEdqdW1kYzJtYQARABCAAACqADibcQN1cm46YzJwYTphMjEzN2Y3Mi05MjliLTQ1MWMtOTU3Yy03MDRjZjAzYmMxODgAAAADl2p1bWIAAAApanVtZGMyYXMAEQAQgAAAqgA4m3EDYzJwYS5hc3NlcnRpb25zAAAAALxqdW1iAAAARGp1bWRjYm9yABEAEIAAAKoAOJtxE2MycGEuaW5ncmVkaWVudC52MwAAAAAYYzJzaHg3VKVk7EWJAd0TQeLgi40AAABwY2JvcqNpZGM6Zm9ybWF0bWltYWdlL3N2Zyt4bWxqaW5zdGFuY2VJRHgseG1wOmlpZDpmNjY1YWNmMC1jY2U2LTQzNmUtOTQxMi0xOTVmNTE2ODU2ODBscmVsYXRpb25zaGlwaHBhcmVudE9mAAAB4mp1bWIAAABBanVtZGNib3IAEQAQgAAAqgA4m3ETYzJwYS5hY3Rpb25zLnYyAAAAABhjMnNo73fhDY26p3qKWEarrdsoIQAAAZljYm9yomdhY3Rpb25zgqJmYWN0aW9ua2MycGEub3BlbmVkanBhcmFtZXRlcnOha2luZ3JlZGllbnRzgaJjdXJseC1zZWxmI2p1bWJmPWMycGEuYXNzZXJ0aW9ucy9jMnBhLmluZ3JlZGllbnQudjNkaGFzaFgg+VxkyPdXMCK66agSl0HZIgDTF0zWurvGhhdg7tBcDb2kZmFjdGlvbngdY29tLmFudGhyb3BpYy5jbGF1ZGUucHJvdmlkZWRqcGFyYW1ldGVyc6F4H2NvbS5hbnRocm9waWMub3JpZ2luLWNvbmZpZGVuY2VndW5rbm93bmtkZXNjcmlwdGlvbnhmQ2xhdWRlIHByb3ZpZGVkIHRoaXMgZmlsZSBhdCB0aGUgcmVxdWVzdCBvZiBhIHVzZXIgYW5kIG1heSBoYXZlIGNyZWF0ZWQgb3IgbW9kaWZpZWQgdGhlIGZpbGUgY29udGVudHMubXNvZnR3YXJlQWdlbnShZG5hbWVmQ2xhdWRlcmFsbEFjdGlvbnNJbmNsdWRlZPUAAADIanVtYgAAAEBqdW1kY2JvcgARABCAAACqADibcRNjMnBhLmhhc2guZGF0YQAAAAAYYzJzaLeqoCJW3feJE2rxoiuSIkYAAACAY2JvcqVjYWxnZnNoYTI1NmNwYWRNAAAAAAAAAAAAAAAAAGRoYXNoWCCaJp1Uch7K1goEtsKuM71BoO0xK/WtLhMNI6KEjg/h7GRuYW1lbmp1bWJmIG1hbmlmZXN0amV4Y2x1c2lvbnOBomVzdGFydBiWZmxlbmd0aBkeBAAAAj5qdW1iAAAAJ2p1bWRjMmNsABEAEIAAAKoAOJtxA2MycGEuY2xhaW0udjIAAAACD2Nib3KlY2FsZ2ZzaGEyNTZpc2lnbmF0dXJleE1zZWxmI2p1bWJmPS9jMnBhL3VybjpjMnBhOmEyMTM3ZjcyLTkyOWItNDUxYy05NTdjLTcwNGNmMDNiYzE4OC9jMnBhLnNpZ25hdHVyZWppbnN0YW5jZUlEeCx4bXA6aWlkOjQ1OWUzY2UwLWM5YTAtNGU5Yi1iMWRkLTY2ZWFiMjEyYThiNHJjcmVhdGVkX2Fzc2VydGlvbnODomN1cmx4LXNlbGYjanVtYmY9YzJwYS5hc3NlcnRpb25zL2MycGEuaW5ncmVkaWVudC52M2RoYXNoWCD5XGTI91cwIrrpqBKXQdkiANMXTNa6u8aGF2Du0FwNvaJjdXJseCpzZWxmI2p1bWJmPWMycGEuYXNzZXJ0aW9ucy9jMnBhLmFjdGlvbnMudjJkaGFzaFggXLX0CKKgqEWARZaeD/me/bZJDZaRMLtGiWSa453KJdmiY3VybHgpc2VsZiNqdW1iZj1jMnBhLmFzc2VydGlvbnMvYzJwYS5oYXNoLmRhdGFkaGFzaFggQFeD1rKpmMyH0grZvgQZky9iK0bo1WqGOiMvNNQP74R0Y2xhaW1fZ2VuZXJhdG9yX2luZm+jZG5hbWVvQW50aHJvcGljIEZpbGVzZ3ZlcnNpb25lMS4wLjBrc3BlY1ZlcnNpb25lMi40LjAAABA4anVtYgAAAChqdW1kYzJjcwARABCAAACqADibcQNjMnBhLnNpZ25hdHVyZQAAABAIY2JvctKEWQISogEmGCFZAgowggIGMIIBjaADAgECAhRA5aAK7sI50L64g/oGQgU9Z1UTADAKBggqhkjOPQQDAzBJMRcwFQYDVQQKEw5BbnRocm9waWMsIFBCQzEuMCwGA1UEAxMlQW50aHJvcGljIENvbnRlbnQgQ3JlZGVudGlhbHMgUm9vdCBDQTAeFw0yNjA4MDcxODQzNTZaFw0yODA4MDYxOTQzNTZaMEQxFzAVBgNVBAoTDkFudGhyb3BpYywgUEJDMSkwJwYDVQQDEyBBbnRocm9waWMgQ2xhdWRlIENvbnRlbnQgU2lnbmluZzBZMBMGByqGSM49AgEGCCqGSM49AwEHA0IABJh6CmvLUBgFFNU0vUKlOVtE6djd17L5SuwX0LemFisBM3dkd/3cyjxFA3Qo5S46fX0/ihY0VZ7mfb9KF703t5OjWDBWMA4GA1UdDwEB/wQEAwIHgDAVBgNVHSUEDjAMBgorBgEEAYPoXgIBMAwGA1UdEwEB/wQCMAAwHwYDVR0jBBgwFoAUzlHiBIFOZFsj+OPEz5o+nMHXXMIwCgYIKoZIzj0EAwMDZwAwZAIwMXMdFJ4BetLLVY7ORuE9noqbbAZOZn/aArXyTwFAZfKrPzxF2vPoJNf1+UCdg1XGAjBwX1zd9WGqYkqmL5SFqw1QySjr1zJfpJM9+1rdDwSPLMOPOjKuiXjoU/pUUeG9RwmhY3BhZFkNngAAAAAAAAAAAAAAAAAAAAAAAAAAAAAAAAAAAAAAAAAAAAAAAAAAAAAAAAAAAAAAAAAAAAAAAAAAAAAAAAAAAAAAAAAAAAAAAAAAAAAAAAAAAAAAAAAAAAAAAAAAAAAAAAAAAAAAAAAAAAAAAAAAAAAAAAAAAAAAAAAAAAAAAAAAAAAAAAAAAAAAAAAAAAAAAAAAAAAAAAAAAAAAAAAAAAAAAAAAAAAAAAAAAAAAAAAAAAAAAAAAAAAAAAAAAAAAAAAAAAAAAAAAAAAAAAAAAAAAAAAAAAAAAAAAAAAAAAAAAAAAAAAAAAAAAAAAAAAAAAAAAAAAAAAAAAAAAAAAAAAAAAAAAAAAAAAAAAAAAAAAAAAAAAAAAAAAAAAAAAAAAAAAAAAAAAAAAAAAAAAAAAAAAAAAAAAAAAAAAAAAAAAAAAAAAAAAAAAAAAAAAAAAAAAAAAAAAAAAAAAAAAAAAAAAAAAAAAAAAAAAAAAAAAAAAAAAAAAAAAAAAAAAAAAAAAAAAAAAAAAAAAAAAAAAAAAAAAAAAAAAAAAAAAAAAAAAAAAAAAAAAAAAAAAAAAAAAAAAAAAAAAAAAAAAAAAAAAAAAAAAAAAAAAAAAAAAAAAAAAAAAAAAAAAAAAAAAAAAAAAAAAAAAAAAAAAAAAAAAAAAAAAAAAAAAAAAAAAAAAAAAAAAAAAAAAAAAAAAAAAAAAAAAAAAAAAAAAAAAAAAAAAAAAAAAAAAAAAAAAAAAAAAAAAAAAAAAAAAAAAAAAAAAAAAAAAAAAAAAAAAAAAAAAAAAAAAAAAAAAAAAAAAAAAAAAAAAAAAAAAAAAAAAAAAAAAAAAAAAAAAAAAAAAAAAAAAAAAAAAAAAAAAAAAAAAAAAAAAAAAAAAAAAAAAAAAAAAAAAAAAAAAAAAAAAAAAAAAAAAAAAAAAAAAAAAAAAAAAAAAAAAAAAAAAAAAAAAAAAAAAAAAAAAAAAAAAAAAAAAAAAAAAAAAAAAAAAAAAAAAAAAAAAAAAAAAAAAAAAAAAAAAAAAAAAAAAAAAAAAAAAAAAAAAAAAAAAAAAAAAAAAAAAAAAAAAAAAAAAAAAAAAAAAAAAAAAAAAAAAAAAAAAAAAAAAAAAAAAAAAAAAAAAAAAAAAAAAAAAAAAAAAAAAAAAAAAAAAAAAAAAAAAAAAAAAAAAAAAAAAAAAAAAAAAAAAAAAAAAAAAAAAAAAAAAAAAAAAAAAAAAAAAAAAAAAAAAAAAAAAAAAAAAAAAAAAAAAAAAAAAAAAAAAAAAAAAAAAAAAAAAAAAAAAAAAAAAAAAAAAAAAAAAAAAAAAAAAAAAAAAAAAAAAAAAAAAAAAAAAAAAAAAAAAAAAAAAAAAAAAAAAAAAAAAAAAAAAAAAAAAAAAAAAAAAAAAAAAAAAAAAAAAAAAAAAAAAAAAAAAAAAAAAAAAAAAAAAAAAAAAAAAAAAAAAAAAAAAAAAAAAAAAAAAAAAAAAAAAAAAAAAAAAAAAAAAAAAAAAAAAAAAAAAAAAAAAAAAAAAAAAAAAAAAAAAAAAAAAAAAAAAAAAAAAAAAAAAAAAAAAAAAAAAAAAAAAAAAAAAAAAAAAAAAAAAAAAAAAAAAAAAAAAAAAAAAAAAAAAAAAAAAAAAAAAAAAAAAAAAAAAAAAAAAAAAAAAAAAAAAAAAAAAAAAAAAAAAAAAAAAAAAAAAAAAAAAAAAAAAAAAAAAAAAAAAAAAAAAAAAAAAAAAAAAAAAAAAAAAAAAAAAAAAAAAAAAAAAAAAAAAAAAAAAAAAAAAAAAAAAAAAAAAAAAAAAAAAAAAAAAAAAAAAAAAAAAAAAAAAAAAAAAAAAAAAAAAAAAAAAAAAAAAAAAAAAAAAAAAAAAAAAAAAAAAAAAAAAAAAAAAAAAAAAAAAAAAAAAAAAAAAAAAAAAAAAAAAAAAAAAAAAAAAAAAAAAAAAAAAAAAAAAAAAAAAAAAAAAAAAAAAAAAAAAAAAAAAAAAAAAAAAAAAAAAAAAAAAAAAAAAAAAAAAAAAAAAAAAAAAAAAAAAAAAAAAAAAAAAAAAAAAAAAAAAAAAAAAAAAAAAAAAAAAAAAAAAAAAAAAAAAAAAAAAAAAAAAAAAAAAAAAAAAAAAAAAAAAAAAAAAAAAAAAAAAAAAAAAAAAAAAAAAAAAAAAAAAAAAAAAAAAAAAAAAAAAAAAAAAAAAAAAAAAAAAAAAAAAAAAAAAAAAAAAAAAAAAAAAAAAAAAAAAAAAAAAAAAAAAAAAAAAAAAAAAAAAAAAAAAAAAAAAAAAAAAAAAAAAAAAAAAAAAAAAAAAAAAAAAAAAAAAAAAAAAAAAAAAAAAAAAAAAAAAAAAAAAAAAAAAAAAAAAAAAAAAAAAAAAAAAAAAAAAAAAAAAAAAAAAAAAAAAAAAAAAAAAAAAAAAAAAAAAAAAAAAAAAAAAAAAAAAAAAAAAAAAAAAAAAAAAAAAAAAAAAAAAAAAAAAAAAAAAAAAAAAAAAAAAAAAAAAAAAAAAAAAAAAAAAAAAAAAAAAAAAAAAAAAAAAAAAAAAAAAAAAAAAAAAAAAAAAAAAAAAAAAAAAAAAAAAAAAAAAAAAAAAAAAAAAAAAAAAAAAAAAAAAAAAAAAAAAAAAAAAAAAAAAAAAAAAAAAAAAAAAAAAAAAAAAAAAAAAAAAAAAAAAAAAAAAAAAAAAAAAAAAAAAAAAAAAAAAAAAAAAAAAAAAAAAAAAAAAAAAAAAAAAAAAAAAAAAAAAAAAAAAAAAAAAAAAAAAAAAAAAAAAAAAAAAAAAAAAAAAAAAAAAAAAAAAAAAAAAAAAAAAAAAAAAAAAAAAAAAAAAAAAAAAAAAAAAAAAAAAAAAAAAAAAAAAAAAAAAAAAAAAAAAAAAAAAAAAAAAAAAAAAAAAAAAAAAAAAAAAAAAAAAAAAAAAAAAAAAAAAAAAAAAAAAAAAAAAAAAAAAAAAAAAAAAAAAAAAAAAAAAAAAAAAAAAAAAAAAAAAAAAAAAAAAAAAAAAAAAAAAAAAAAAAAAAAAAAAAAAAAAAAAAAAAAAAAAAAAAAAAAAAAAAAAAAAAAAAAAAAAAAAAAAAAAAAAAAAAAAAAAAAAAAAAAAAAAAAAAAAAAAAAAAAAAAAAAAAAAAAAAAAAAAAAAAAAAAAAAAAAAAAAAAAAAAAAAAAAAAAAAAAAAAAAAAAAAAAAAAAAAAAAAAAAAAAAAAAAAAAAAAAAAAAAAAAAAAAAAAAAAAAAAAAAAAAAAAAAAAAAAAAAAAAAAAAAAAAAAAAAAAAAAAAAAAAAAAAAAAAAAAAAAAAAAAAAAAAAAAAAAAAAAAAAAAAAAAAAAAAAAAAAAAAAAAAAAAAAAAAAAAAAAAAAAAAAAAAAAAAAAAAAAAAAAAAAAAAAAAAAAAAAAAAAAAAAAAAAAAAAAAAAAAAAAAAAAAAAAAAAAAAAAAAAAAAAAAAAAAAAAAAAAAAAAAAAAAAAAAAAAAAAAAAAAAAAAAAAAAAAAAAAAAAAAAAAAAAAAAAAAAAAAAAAAAAAAAAAAAAAAAAAAAAAAAAAAAAAAAAAAAAAAAAAAAAAAAAAAAAAAAAAAAAAAAAAAAAAAAAAAAAAAAAAAAAAAAAAAAAAAAAAAAAAAAAAAAAAAAAAAAAAAAAAAAAAAAAAAAAAAAAAAAAAAAAAAAAAAAAAAAAAAAAAAAAAAAAAAAAAAAAAAAAAAAAAAAAAAAAAAAAAAAAAAAAAAAAAAAAAAAAAAAAAAAAAAAAAAAAAAAAAAAAAAAAAAAAAAAAAAAAAAAAAAAAAAAAAAAAAAAAAAAAAAAAAAAAAAAAAAAAAAAAAAAAAAAAAAAAAAAAAAAAAAAAAAAAAAAAAAAAAAAAAAAAAAAAAAAAAAAAAAAAAAAAAAAAAAAAAAAAAAAAAAAAAAAAAAAAAAAAAAAAAAAAAAAAAAAAAAAAAAAAAAAAAAAAAAAAAAAAAAAAAAAAAAAAAAAAAAAAAAAAAAAAAAAAAAAAAAAAAAAAAAAAAAAAAAAAAAAAAAAAAAAAAAAAAAAAAAAAAAAAAAAAAAAAAAAAAAAAAAAAAAAAAAAAAAAAAAAAAAAAAAAAAAAAAAAAAAAAAAAAAAAAAAAAAAAAAAAAAAAAAAAAAAAAAAAAAAAAAAAAAAAAAAAAAAAAAAAAAAAAAAAAAAAAAAAAAAAAAAAAAAAAAAAAAAAAAAAAAAAAAAAAAAAAAAAAAAAAAAAAAAAAAAAAAAAAAAAAAAAAAAAAAAAAAAAAAAAAAAAAAAAAAAAAAAAAAAAAAAAAAAAAAAAAAAAAAAAAAAAAAAAAAAAAAAAAAAAAAAAAAAAAAAAAAAAAAAAAAAAAAAAAAAAAAAAAAAAAAAAAAAAAAAAAAAAAAAAAAAAAAAAAAAAAAAAAAAAAAAAAAAAAAAAAAAAAAAAAAAAAAAAAAAAAAAAAAAAAAAAAAAAAAAAAAAAAAAAAAAAAAAAAAAAAAAAAAAAAAAAAAAAAAAAAAAAAAAAAAAAAAAAAAAAAAAAAAAAAAAAAAAAAAAAAAAAAAAAAAAAAAAAAAAAAAAAAAAAAAAAAAAAAAAAAAAAAAAAAAAAAAAAAAAAAAAAAAAAAAAAAAAAAAAAAAAAAAAAAAAAAAAAAAAAAAAAAAAAAAAAAAAAAAAAAAAAAAAAAAAAAAAAAAAAPZYQH/oPDOsP7y1y21c8+BIoOqM9kwNi+2PGtVvK1h/4CNZvyroGiLiU/wthUQ3QT0TVDHP4MvCwM1a4KbpbSFw++c=</c2pa:manifest></metadata>
<defs>
<linearGradient id="g" x1="0" x2="1"><stop offset="0" stop-color="#3fb950"/><stop offset=".5" stop-color="#58a6ff"/><stop offset="1" stop-color="#bc8cff"/></linearGradient>
<clipPath id="c"><rect width="900" height="660" rx="18"/></clipPath>
</defs>
<style>
text{font-family:"Segoe UI","Helvetica Neue",Arial,sans-serif;fill:#e6edf3}
.m{font-family:"Consolas","DejaVu Sans Mono","Courier New",monospace}
.lbl{font-size:11px;letter-spacing:2.5px;fill:#7d8590;font-weight:600}
.dim{fill:#7d8590}
@keyframes p{0%,100%{opacity:1}50%{opacity:.25}}
.pulse{animation:p 1.8s ease-in-out infinite}
</style>
<g clip-path="url(#c)">
<rect width="900" height="660" fill="#0d1117"/>
<rect width="900" height="4" fill="url(#g)"/>
<text x="40" y="52" font-size="28" font-weight="700" letter-spacing="1.5">RORISANG SEKOMANE</text>
<text x="40" y="78" class="m" font-size="12" letter-spacing="2" fill="#58a6ff" style="fill:#58a6ff">SOFTWARE ENGINEER  •  DATA  •  CLOUD</text>
<rect x="716" y="34" width="144" height="32" rx="16" fill="#0e2a17" stroke="#238636"/>
<circle cx="736" cy="50" r="5" fill="#3fb950" class="pulse"/>
<text x="750" y="54" class="m" font-size="11" letter-spacing="2" style="fill:#3fb950">AVAILABLE</text>
<line x1="0" x2="900" y1="100" y2="100" stroke="#21262d"/>
<line x1="0" x2="900" y1="340" y2="340" stroke="#21262d"/>
<line x1="0" x2="900" y1="602" y2="602" stroke="#21262d"/>
<line x1="300" x2="300" y1="100" y2="340" stroke="#21262d"/>
<line x1="300" x2="300" y1="340" y2="602" stroke="#21262d"/>
<line x1="600" x2="600" y1="340" y2="602" stroke="#21262d"/>
<text x="40" y="134" class="lbl">ABOUT</text>
<text x="40" y="176" font-size="21" font-weight="600">Building reliable</text>
<text x="40" y="203" font-size="21" font-weight="600">software systems</text>
<rect x="40" y="232" width="106" height="26" rx="13" fill="#161b22" stroke="#30363d"/>
<text x="93.0" y="249" text-anchor="middle" class="m" font-size="10.5" letter-spacing="1.5">BACKEND</text>
<rect x="158" y="232" width="106" height="26" rx="13" fill="#161b22" stroke="#30363d"/>
<text x="211.0" y="249" text-anchor="middle" class="m" font-size="10.5" letter-spacing="1.5">FULL-STACK</text>
<rect x="40" y="266" width="106" height="26" rx="13" fill="#161b22" stroke="#30363d"/>
<text x="93.0" y="283" text-anchor="middle" class="m" font-size="10.5" letter-spacing="1.5">DATA</text>
<rect x="158" y="266" width="106" height="26" rx="13" fill="#161b22" stroke="#30363d"/>
<text x="211.0" y="283" text-anchor="middle" class="m" font-size="10.5" letter-spacing="1.5">CLOUD</text>
<text x="340" y="134" class="lbl">GITHUB ACTIVITY</text>
<text x="340" y="180" font-size="32" font-weight="700" style="fill:#e6edf3">--</text>
<text x="340" y="200" class="lbl" style="font-size:10px">REPOS</text>
<text x="470" y="180" font-size="32" font-weight="700" style="fill:#e6edf3">--</text>
<text x="470" y="200" class="lbl" style="font-size:10px">STARS</text>
<text x="600" y="180" font-size="32" font-weight="700" style="fill:#e6edf3">--</text>
<text x="600" y="200" class="lbl" style="font-size:10px">FOLLOWERS</text>
<text x="730" y="180" font-size="32" font-weight="700" style="fill:#e6edf3">--</text>
<text x="730" y="200" class="lbl" style="font-size:10px">COMMITS</text>
<text x="860" y="134" text-anchor="end" class="m dim" font-size="11" style="fill:#7d8590">-- contributions · last year</text>
<rect x="340" y="224" width="9" height="9" rx="2" fill="#21262d"/>
<rect x="340" y="235" width="9" height="9" rx="2" fill="#21262d"/>
<rect x="340" y="246" width="9" height="9" rx="2" fill="#21262d"/>
<rect x="340" y="257" width="9" height="9" rx="2" fill="#21262d"/>
<rect x="340" y="268" width="9" height="9" rx="2" fill="#21262d"/>
<rect x="340" y="279" width="9" height="9" rx="2" fill="#21262d"/>
<rect x="340" y="290" width="9" height="9" rx="2" fill="#21262d"/>
<rect x="351" y="224" width="9" height="9" rx="2" fill="#21262d"/>
<rect x="351" y="235" width="9" height="9" rx="2" fill="#21262d"/>
<rect x="351" y="246" width="9" height="9" rx="2" fill="#21262d"/>
<rect x="351" y="257" width="9" height="9" rx="2" fill="#21262d"/>
<rect x="351" y="268" width="9" height="9" rx="2" fill="#21262d"/>
<rect x="351" y="279" width="9" height="9" rx="2" fill="#21262d"/>
<rect x="351" y="290" width="9" height="9" rx="2" fill="#21262d"/>
<rect x="362" y="224" width="9" height="9" rx="2" fill="#21262d"/>
<rect x="362" y="235" width="9" height="9" rx="2" fill="#21262d"/>
<rect x="362" y="246" width="9" height="9" rx="2" fill="#21262d"/>
<rect x="362" y="257" width="9" height="9" rx="2" fill="#21262d"/>
<rect x="362" y="268" width="9" height="9" rx="2" fill="#21262d"/>
<rect x="362" y="279" width="9" height="9" rx="2" fill="#21262d"/>
<rect x="362" y="290" width="9" height="9" rx="2" fill="#21262d"/>
<rect x="373" y="224" width="9" height="9" rx="2" fill="#21262d"/>
<rect x="373" y="235" width="9" height="9" rx="2" fill="#21262d"/>
<rect x="373" y="246" width="9" height="9" rx="2" fill="#21262d"/>
<rect x="373" y="257" width="9" height="9" rx="2" fill="#21262d"/>
<rect x="373" y="268" width="9" height="9" rx="2" fill="#21262d"/>
<rect x="373" y="279" width="9" height="9" rx="2" fill="#21262d"/>
<rect x="373" y="290" width="9" height="9" rx="2" fill="#21262d"/>
<rect x="384" y="224" width="9" height="9" rx="2" fill="#21262d"/>
<rect x="384" y="235" width="9" height="9" rx="2" fill="#21262d"/>
<rect x="384" y="246" width="9" height="9" rx="2" fill="#21262d"/>
<rect x="384" y="257" width="9" height="9" rx="2" fill="#21262d"/>
<rect x="384" y="268" width="9" height="9" rx="2" fill="#21262d"/>
<rect x="384" y="279" width="9" height="9" rx="2" fill="#21262d"/>
<rect x="384" y="290" width="9" height="9" rx="2" fill="#21262d"/>
<rect x="395" y="224" width="9" height="9" rx="2" fill="#21262d"/>
<rect x="395" y="235" width="9" height="9" rx="2" fill="#21262d"/>
<rect x="395" y="246" width="9" height="9" rx="2" fill="#21262d"/>
<rect x="395" y="257" width="9" height="9" rx="2" fill="#21262d"/>
<rect x="395" y="268" width="9" height="9" rx="2" fill="#21262d"/>
<rect x="395" y="279" width="9" height="9" rx="2" fill="#21262d"/>
<rect x="395" y="290" width="9" height="9" rx="2" fill="#21262d"/>
<rect x="406" y="224" width="9" height="9" rx="2" fill="#21262d"/>
<rect x="406" y="235" width="9" height="9" rx="2" fill="#21262d"/>
<rect x="406" y="246" width="9" height="9" rx="2" fill="#21262d"/>
<rect x="406" y="257" width="9" height="9" rx="2" fill="#21262d"/>
<rect x="406" y="268" width="9" height="9" rx="2" fill="#21262d"/>
<rect x="406" y="279" width="9" height="9" rx="2" fill="#21262d"/>
<rect x="406" y="290" width="9" height="9" rx="2" fill="#21262d"/>
<rect x="417" y="224" width="9" height="9" rx="2" fill="#21262d"/>
<rect x="417" y="235" width="9" height="9" rx="2" fill="#21262d"/>
<rect x="417" y="246" width="9" height="9" rx="2" fill="#21262d"/>
<rect x="417" y="257" width="9" height="9" rx="2" fill="#21262d"/>
<rect x="417" y="268" width="9" height="9" rx="2" fill="#21262d"/>
<rect x="417" y="279" width="9" height="9" rx="2" fill="#21262d"/>
<rect x="417" y="290" width="9" height="9" rx="2" fill="#21262d"/>
<rect x="428" y="224" width="9" height="9" rx="2" fill="#21262d"/>
<rect x="428" y="235" width="9" height="9" rx="2" fill="#21262d"/>
<rect x="428" y="246" width="9" height="9" rx="2" fill="#21262d"/>
<rect x="428" y="257" width="9" height="9" rx="2" fill="#21262d"/>
<rect x="428" y="268" width="9" height="9" rx="2" fill="#21262d"/>
<rect x="428" y="279" width="9" height="9" rx="2" fill="#21262d"/>
<rect x="428" y="290" width="9" height="9" rx="2" fill="#21262d"/>
<rect x="439" y="224" width="9" height="9" rx="2" fill="#21262d"/>
<rect x="439" y="235" width="9" height="9" rx="2" fill="#21262d"/>
<rect x="439" y="246" width="9" height="9" rx="2" fill="#21262d"/>
<rect x="439" y="257" width="9" height="9" rx="2" fill="#21262d"/>
<rect x="439" y="268" width="9" height="9" rx="2" fill="#21262d"/>
<rect x="439" y="279" width="9" height="9" rx="2" fill="#21262d"/>
<rect x="439" y="290" width="9" height="9" rx="2" fill="#21262d"/>
<rect x="450" y="224" width="9" height="9" rx="2" fill="#21262d"/>
<rect x="450" y="235" width="9" height="9" rx="2" fill="#21262d"/>
<rect x="450" y="246" width="9" height="9" rx="2" fill="#21262d"/>
<rect x="450" y="257" width="9" height="9" rx="2" fill="#21262d"/>
<rect x="450" y="268" width="9" height="9" rx="2" fill="#21262d"/>
<rect x="450" y="279" width="9" height="9" rx="2" fill="#21262d"/>
<rect x="450" y="290" width="9" height="9" rx="2" fill="#21262d"/>
<rect x="461" y="224" width="9" height="9" rx="2" fill="#21262d"/>
<rect x="461" y="235" width="9" height="9" rx="2" fill="#21262d"/>
<rect x="461" y="246" width="9" height="9" rx="2" fill="#21262d"/>
<rect x="461" y="257" width="9" height="9" rx="2" fill="#21262d"/>
<rect x="461" y="268" width="9" height="9" rx="2" fill="#21262d"/>
<rect x="461" y="279" width="9" height="9" rx="2" fill="#21262d"/>
<rect x="461" y="290" width="9" height="9" rx="2" fill="#21262d"/>
<rect x="472" y="224" width="9" height="9" rx="2" fill="#21262d"/>
<rect x="472" y="235" width="9" height="9" rx="2" fill="#21262d"/>
<rect x="472" y="246" width="9" height="9" rx="2" fill="#21262d"/>
<rect x="472" y="257" width="9" height="9" rx="2" fill="#21262d"/>
<rect x="472" y="268" width="9" height="9" rx="2" fill="#21262d"/>
<rect x="472" y="279" width="9" height="9" rx="2" fill="#21262d"/>
<rect x="472" y="290" width="9" height="9" rx="2" fill="#21262d"/>
<rect x="483" y="224" width="9" height="9" rx="2" fill="#21262d"/>
<rect x="483" y="235" width="9" height="9" rx="2" fill="#21262d"/>
<rect x="483" y="246" width="9" height="9" rx="2" fill="#21262d"/>
<rect x="483" y="257" width="9" height="9" rx="2" fill="#21262d"/>
<rect x="483" y="268" width="9" height="9" rx="2" fill="#21262d"/>
<rect x="483" y="279" width="9" height="9" rx="2" fill="#21262d"/>
<rect x="483" y="290" width="9" height="9" rx="2" fill="#21262d"/>
<rect x="494" y="224" width="9" height="9" rx="2" fill="#21262d"/>
<rect x="494" y="235" width="9" height="9" rx="2" fill="#21262d"/>
<rect x="494" y="246" width="9" height="9" rx="2" fill="#21262d"/>
<rect x="494" y="257" width="9" height="9" rx="2" fill="#21262d"/>
<rect x="494" y="268" width="9" height="9" rx="2" fill="#21262d"/>
<rect x="494" y="279" width="9" height="9" rx="2" fill="#21262d"/>
<rect x="494" y="290" width="9" height="9" rx="2" fill="#21262d"/>
<rect x="505" y="224" width="9" height="9" rx="2" fill="#21262d"/>
<rect x="505" y="235" width="9" height="9" rx="2" fill="#21262d"/>
<rect x="505" y="246" width="9" height="9" rx="2" fill="#21262d"/>
<rect x="505" y="257" width="9" height="9" rx="2" fill="#21262d"/>
<rect x="505" y="268" width="9" height="9" rx="2" fill="#21262d"/>
<rect x="505" y="279" width="9" height="9" rx="2" fill="#21262d"/>
<rect x="505" y="290" width="9" height="9" rx="2" fill="#21262d"/>
<rect x="516" y="224" width="9" height="9" rx="2" fill="#21262d"/>
<rect x="516" y="235" width="9" height="9" rx="2" fill="#21262d"/>
<rect x="516" y="246" width="9" height="9" rx="2" fill="#21262d"/>
<rect x="516" y="257" width="9" height="9" rx="2" fill="#21262d"/>
<rect x="516" y="268" width="9" height="9" rx="2" fill="#21262d"/>
<rect x="516" y="279" width="9" height="9" rx="2" fill="#21262d"/>
<rect x="516" y="290" width="9" height="9" rx="2" fill="#21262d"/>
<rect x="527" y="224" width="9" height="9" rx="2" fill="#21262d"/>
<rect x="527" y="235" width="9" height="9" rx="2" fill="#21262d"/>
<rect x="527" y="246" width="9" height="9" rx="2" fill="#21262d"/>
<rect x="527" y="257" width="9" height="9" rx="2" fill="#21262d"/>
<rect x="527" y="268" width="9" height="9" rx="2" fill="#21262d"/>
<rect x="527" y="279" width="9" height="9" rx="2" fill="#21262d"/>
<rect x="527" y="290" width="9" height="9" rx="2" fill="#21262d"/>
<rect x="538" y="224" width="9" height="9" rx="2" fill="#21262d"/>
<rect x="538" y="235" width="9" height="9" rx="2" fill="#21262d"/>
<rect x="538" y="246" width="9" height="9" rx="2" fill="#21262d"/>
<rect x="538" y="257" width="9" height="9" rx="2" fill="#21262d"/>
<rect x="538" y="268" width="9" height="9" rx="2" fill="#21262d"/>
<rect x="538" y="279" width="9" height="9" rx="2" fill="#21262d"/>
<rect x="538" y="290" width="9" height="9" rx="2" fill="#21262d"/>
<rect x="549" y="224" width="9" height="9" rx="2" fill="#21262d"/>
<rect x="549" y="235" width="9" height="9" rx="2" fill="#21262d"/>
<rect x="549" y="246" width="9" height="9" rx="2" fill="#21262d"/>
<rect x="549" y="257" width="9" height="9" rx="2" fill="#21262d"/>
<rect x="549" y="268" width="9" height="9" rx="2" fill="#21262d"/>
<rect x="549" y="279" width="9" height="9" rx="2" fill="#21262d"/>
<rect x="549" y="290" width="9" height="9" rx="2" fill="#21262d"/>
<rect x="560" y="224" width="9" height="9" rx="2" fill="#21262d"/>
<rect x="560" y="235" width="9" height="9" rx="2" fill="#21262d"/>
<rect x="560" y="246" width="9" height="9" rx="2" fill="#21262d"/>
<rect x="560" y="257" width="9" height="9" rx="2" fill="#21262d"/>
<rect x="560" y="268" width="9" height="9" rx="2" fill="#21262d"/>
<rect x="560" y="279" width="9" height="9" rx="2" fill="#21262d"/>
<rect x="560" y="290" width="9" height="9" rx="2" fill="#21262d"/>
<rect x="571" y="224" width="9" height="9" rx="2" fill="#21262d"/>
<rect x="571" y="235" width="9" height="9" rx="2" fill="#21262d"/>
<rect x="571" y="246" width="9" height="9" rx="2" fill="#21262d"/>
<rect x="571" y="257" width="9" height="9" rx="2" fill="#21262d"/>
<rect x="571" y="268" width="9" height="9" rx="2" fill="#21262d"/>
<rect x="571" y="279" width="9" height="9" rx="2" fill="#21262d"/>
<rect x="571" y="290" width="9" height="9" rx="2" fill="#21262d"/>
<rect x="582" y="224" width="9" height="9" rx="2" fill="#21262d"/>
<rect x="582" y="235" width="9" height="9" rx="2" fill="#21262d"/>
<rect x="582" y="246" width="9" height="9" rx="2" fill="#21262d"/>
<rect x="582" y="257" width="9" height="9" rx="2" fill="#21262d"/>
<rect x="582" y="268" width="9" height="9" rx="2" fill="#21262d"/>
<rect x="582" y="279" width="9" height="9" rx="2" fill="#21262d"/>
<rect x="582" y="290" width="9" height="9" rx="2" fill="#21262d"/>
<rect x="593" y="224" width="9" height="9" rx="2" fill="#21262d"/>
<rect x="593" y="235" width="9" height="9" rx="2" fill="#21262d"/>
<rect x="593" y="246" width="9" height="9" rx="2" fill="#21262d"/>
<rect x="593" y="257" width="9" height="9" rx="2" fill="#21262d"/>
<rect x="593" y="268" width="9" height="9" rx="2" fill="#21262d"/>
<rect x="593" y="279" width="9" height="9" rx="2" fill="#21262d"/>
<rect x="593" y="290" width="9" height="9" rx="2" fill="#21262d"/>
<rect x="604" y="224" width="9" height="9" rx="2" fill="#21262d"/>
<rect x="604" y="235" width="9" height="9" rx="2" fill="#21262d"/>
<rect x="604" y="246" width="9" height="9" rx="2" fill="#21262d"/>
<rect x="604" y="257" width="9" height="9" rx="2" fill="#21262d"/>
<rect x="604" y="268" width="9" height="9" rx="2" fill="#21262d"/>
<rect x="604" y="279" width="9" height="9" rx="2" fill="#21262d"/>
<rect x="604" y="290" width="9" height="9" rx="2" fill="#21262d"/>
<rect x="615" y="224" width="9" height="9" rx="2" fill="#21262d"/>
<rect x="615" y="235" width="9" height="9" rx="2" fill="#21262d"/>
<rect x="615" y="246" width="9" height="9" rx="2" fill="#21262d"/>
<rect x="615" y="257" width="9" height="9" rx="2" fill="#21262d"/>
<rect x="615" y="268" width="9" height="9" rx="2" fill="#21262d"/>
<rect x="615" y="279" width="9" height="9" rx="2" fill="#21262d"/>
<rect x="615" y="290" width="9" height="9" rx="2" fill="#21262d"/>
<rect x="626" y="224" width="9" height="9" rx="2" fill="#21262d"/>
<rect x="626" y="235" width="9" height="9" rx="2" fill="#21262d"/>
<rect x="626" y="246" width="9" height="9" rx="2" fill="#21262d"/>
<rect x="626" y="257" width="9" height="9" rx="2" fill="#21262d"/>
<rect x="626" y="268" width="9" height="9" rx="2" fill="#21262d"/>
<rect x="626" y="279" width="9" height="9" rx="2" fill="#21262d"/>
<rect x="626" y="290" width="9" height="9" rx="2" fill="#21262d"/>
<rect x="637" y="224" width="9" height="9" rx="2" fill="#21262d"/>
<rect x="637" y="235" width="9" height="9" rx="2" fill="#21262d"/>
<rect x="637" y="246" width="9" height="9" rx="2" fill="#21262d"/>
<rect x="637" y="257" width="9" height="9" rx="2" fill="#21262d"/>
<rect x="637" y="268" width="9" height="9" rx="2" fill="#21262d"/>
<rect x="637" y="279" width="9" height="9" rx="2" fill="#21262d"/>
<rect x="637" y="290" width="9" height="9" rx="2" fill="#21262d"/>
<rect x="648" y="224" width="9" height="9" rx="2" fill="#21262d"/>
<rect x="648" y="235" width="9" height="9" rx="2" fill="#21262d"/>
<rect x="648" y="246" width="9" height="9" rx="2" fill="#21262d"/>
<rect x="648" y="257" width="9" height="9" rx="2" fill="#21262d"/>
<rect x="648" y="268" width="9" height="9" rx="2" fill="#21262d"/>
<rect x="648" y="279" width="9" height="9" rx="2" fill="#21262d"/>
<rect x="648" y="290" width="9" height="9" rx="2" fill="#21262d"/>
<rect x="659" y="224" width="9" height="9" rx="2" fill="#21262d"/>
<rect x="659" y="235" width="9" height="9" rx="2" fill="#21262d"/>
<rect x="659" y="246" width="9" height="9" rx="2" fill="#21262d"/>
<rect x="659" y="257" width="9" height="9" rx="2" fill="#21262d"/>
<rect x="659" y="268" width="9" height="9" rx="2" fill="#21262d"/>
<rect x="659" y="279" width="9" height="9" rx="2" fill="#21262d"/>
<rect x="659" y="290" width="9" height="9" rx="2" fill="#21262d"/>
<rect x="670" y="224" width="9" height="9" rx="2" fill="#21262d"/>
<rect x="670" y="235" width="9" height="9" rx="2" fill="#21262d"/>
<rect x="670" y="246" width="9" height="9" rx="2" fill="#21262d"/>
<rect x="670" y="257" width="9" height="9" rx="2" fill="#21262d"/>
<rect x="670" y="268" width="9" height="9" rx="2" fill="#21262d"/>
<rect x="670" y="279" width="9" height="9" rx="2" fill="#21262d"/>
<rect x="670" y="290" width="9" height="9" rx="2" fill="#21262d"/>
<rect x="681" y="224" width="9" height="9" rx="2" fill="#21262d"/>
<rect x="681" y="235" width="9" height="9" rx="2" fill="#21262d"/>
<rect x="681" y="246" width="9" height="9" rx="2" fill="#21262d"/>
<rect x="681" y="257" width="9" height="9" rx="2" fill="#21262d"/>
<rect x="681" y="268" width="9" height="9" rx="2" fill="#21262d"/>
<rect x="681" y="279" width="9" height="9" rx="2" fill="#21262d"/>
<rect x="681" y="290" width="9" height="9" rx="2" fill="#21262d"/>
<rect x="692" y="224" width="9" height="9" rx="2" fill="#21262d"/>
<rect x="692" y="235" width="9" height="9" rx="2" fill="#21262d"/>
<rect x="692" y="246" width="9" height="9" rx="2" fill="#21262d"/>
<rect x="692" y="257" width="9" height="9" rx="2" fill="#21262d"/>
<rect x="692" y="268" width="9" height="9" rx="2" fill="#21262d"/>
<rect x="692" y="279" width="9" height="9" rx="2" fill="#21262d"/>
<rect x="692" y="290" width="9" height="9" rx="2" fill="#21262d"/>
<rect x="703" y="224" width="9" height="9" rx="2" fill="#21262d"/>
<rect x="703" y="235" width="9" height="9" rx="2" fill="#21262d"/>
<rect x="703" y="246" width="9" height="9" rx="2" fill="#21262d"/>
<rect x="703" y="257" width="9" height="9" rx="2" fill="#21262d"/>
<rect x="703" y="268" width="9" height="9" rx="2" fill="#21262d"/>
<rect x="703" y="279" width="9" height="9" rx="2" fill="#21262d"/>
<rect x="703" y="290" width="9" height="9" rx="2" fill="#21262d"/>
<rect x="714" y="224" width="9" height="9" rx="2" fill="#21262d"/>
<rect x="714" y="235" width="9" height="9" rx="2" fill="#21262d"/>
<rect x="714" y="246" width="9" height="9" rx="2" fill="#21262d"/>
<rect x="714" y="257" width="9" height="9" rx="2" fill="#21262d"/>
<rect x="714" y="268" width="9" height="9" rx="2" fill="#21262d"/>
<rect x="714" y="279" width="9" height="9" rx="2" fill="#21262d"/>
<rect x="714" y="290" width="9" height="9" rx="2" fill="#21262d"/>
<rect x="725" y="224" width="9" height="9" rx="2" fill="#21262d"/>
<rect x="725" y="235" width="9" height="9" rx="2" fill="#21262d"/>
<rect x="725" y="246" width="9" height="9" rx="2" fill="#21262d"/>
<rect x="725" y="257" width="9" height="9" rx="2" fill="#21262d"/>
<rect x="725" y="268" width="9" height="9" rx="2" fill="#21262d"/>
<rect x="725" y="279" width="9" height="9" rx="2" fill="#21262d"/>
<rect x="725" y="290" width="9" height="9" rx="2" fill="#21262d"/>
<rect x="736" y="224" width="9" height="9" rx="2" fill="#21262d"/>
<rect x="736" y="235" width="9" height="9" rx="2" fill="#21262d"/>
<rect x="736" y="246" width="9" height="9" rx="2" fill="#21262d"/>
<rect x="736" y="257" width="9" height="9" rx="2" fill="#21262d"/>
<rect x="736" y="268" width="9" height="9" rx="2" fill="#21262d"/>
<rect x="736" y="279" width="9" height="9" rx="2" fill="#21262d"/>
<rect x="736" y="290" width="9" height="9" rx="2" fill="#21262d"/>
<rect x="747" y="224" width="9" height="9" rx="2" fill="#21262d"/>
<rect x="747" y="235" width="9" height="9" rx="2" fill="#21262d"/>
<rect x="747" y="246" width="9" height="9" rx="2" fill="#21262d"/>
<rect x="747" y="257" width="9" height="9" rx="2" fill="#21262d"/>
<rect x="747" y="268" width="9" height="9" rx="2" fill="#21262d"/>
<rect x="747" y="279" width="9" height="9" rx="2" fill="#21262d"/>
<rect x="747" y="290" width="9" height="9" rx="2" fill="#21262d"/>
<rect x="758" y="224" width="9" height="9" rx="2" fill="#21262d"/>
<rect x="758" y="235" width="9" height="9" rx="2" fill="#21262d"/>
<rect x="758" y="246" width="9" height="9" rx="2" fill="#21262d"/>
<rect x="758" y="257" width="9" height="9" rx="2" fill="#21262d"/>
<rect x="758" y="268" width="9" height="9" rx="2" fill="#21262d"/>
<rect x="758" y="279" width="9" height="9" rx="2" fill="#21262d"/>
<rect x="758" y="290" width="9" height="9" rx="2" fill="#21262d"/>
<rect x="769" y="224" width="9" height="9" rx="2" fill="#21262d"/>
<rect x="769" y="235" width="9" height="9" rx="2" fill="#21262d"/>
<rect x="769" y="246" width="9" height="9" rx="2" fill="#21262d"/>
<rect x="769" y="257" width="9" height="9" rx="2" fill="#21262d"/>
<rect x="769" y="268" width="9" height="9" rx="2" fill="#21262d"/>
<rect x="769" y="279" width="9" height="9" rx="2" fill="#21262d"/>
<rect x="769" y="290" width="9" height="9" rx="2" fill="#21262d"/>
<rect x="780" y="224" width="9" height="9" rx="2" fill="#21262d"/>
<rect x="780" y="235" width="9" height="9" rx="2" fill="#21262d"/>
<rect x="780" y="246" width="9" height="9" rx="2" fill="#21262d"/>
<rect x="780" y="257" width="9" height="9" rx="2" fill="#21262d"/>
<rect x="780" y="268" width="9" height="9" rx="2" fill="#21262d"/>
<rect x="780" y="279" width="9" height="9" rx="2" fill="#21262d"/>
<rect x="780" y="290" width="9" height="9" rx="2" fill="#21262d"/>
<rect x="791" y="224" width="9" height="9" rx="2" fill="#21262d"/>
<rect x="791" y="235" width="9" height="9" rx="2" fill="#21262d"/>
<rect x="791" y="246" width="9" height="9" rx="2" fill="#21262d"/>
<rect x="791" y="257" width="9" height="9" rx="2" fill="#21262d"/>
<rect x="791" y="268" width="9" height="9" rx="2" fill="#21262d"/>
<rect x="791" y="279" width="9" height="9" rx="2" fill="#21262d"/>
<rect x="791" y="290" width="9" height="9" rx="2" fill="#21262d"/>
<rect x="802" y="224" width="9" height="9" rx="2" fill="#21262d"/>
<rect x="802" y="235" width="9" height="9" rx="2" fill="#21262d"/>
<rect x="802" y="246" width="9" height="9" rx="2" fill="#21262d"/>
<rect x="802" y="257" width="9" height="9" rx="2" fill="#21262d"/>
<rect x="802" y="268" width="9" height="9" rx="2" fill="#21262d"/>
<rect x="802" y="279" width="9" height="9" rx="2" fill="#21262d"/>
<rect x="802" y="290" width="9" height="9" rx="2" fill="#21262d"/>
<rect x="813" y="224" width="9" height="9" rx="2" fill="#21262d"/>
<rect x="813" y="235" width="9" height="9" rx="2" fill="#21262d"/>
<rect x="813" y="246" width="9" height="9" rx="2" fill="#21262d"/>
<rect x="813" y="257" width="9" height="9" rx="2" fill="#21262d"/>
<rect x="813" y="268" width="9" height="9" rx="2" fill="#21262d"/>
<rect x="813" y="279" width="9" height="9" rx="2" fill="#21262d"/>
<rect x="813" y="290" width="9" height="9" rx="2" fill="#21262d"/>
<rect x="824" y="224" width="9" height="9" rx="2" fill="#21262d"/>
<rect x="824" y="235" width="9" height="9" rx="2" fill="#21262d"/>
<rect x="824" y="246" width="9" height="9" rx="2" fill="#21262d"/>
<rect x="824" y="257" width="9" height="9" rx="2" fill="#21262d"/>
<rect x="824" y="268" width="9" height="9" rx="2" fill="#21262d"/>
<rect x="824" y="279" width="9" height="9" rx="2" fill="#21262d"/>
<rect x="824" y="290" width="9" height="9" rx="2" fill="#21262d"/>
<rect x="835" y="224" width="9" height="9" rx="2" fill="#21262d"/>
<rect x="835" y="235" width="9" height="9" rx="2" fill="#21262d"/>
<rect x="835" y="246" width="9" height="9" rx="2" fill="#21262d"/>
<rect x="835" y="257" width="9" height="9" rx="2" fill="#21262d"/>
<rect x="835" y="268" width="9" height="9" rx="2" fill="#21262d"/>
<rect x="835" y="279" width="9" height="9" rx="2" fill="#21262d"/>
<rect x="835" y="290" width="9" height="9" rx="2" fill="#21262d"/>
<rect x="846" y="224" width="9" height="9" rx="2" fill="#21262d"/>
<rect x="846" y="235" width="9" height="9" rx="2" fill="#21262d"/>
<rect x="846" y="246" width="9" height="9" rx="2" fill="#21262d"/>
<rect x="846" y="257" width="9" height="9" rx="2" fill="#21262d"/>
<rect x="846" y="268" width="9" height="9" rx="2" fill="#21262d"/>
<rect x="846" y="279" width="9" height="9" rx="2" fill="#21262d"/>
<rect x="846" y="290" width="9" height="9" rx="2" fill="#21262d"/>
<text x="40" y="374" class="lbl">SOFTWARE</text>
<circle cx="44" cy="402" r="4" fill="#3fb950"/>
<text x="60" y="406" font-size="15">Java</text>
<circle cx="44" cy="428" r="4" fill="#3fb950"/>
<text x="60" y="432" font-size="15">C#</text>
<circle cx="44" cy="454" r="4" fill="#3fb950"/>
<text x="60" y="458" font-size="15">Python</text>
<circle cx="44" cy="480" r="4" fill="#3fb950"/>
<text x="60" y="484" font-size="15">TypeScript</text>
<circle cx="44" cy="506" r="4" fill="#3fb950"/>
<text x="60" y="510" font-size="15">React</text>
<circle cx="44" cy="532" r="4" fill="#3fb950"/>
<text x="60" y="536" font-size="15">Angular</text>
<circle cx="44" cy="558" r="4" fill="#3fb950"/>
<text x="60" y="562" font-size="15">.NET</text>
<circle cx="44" cy="584" r="4" fill="#3fb950"/>
<text x="60" y="588" font-size="15">Django</text>
<text x="340" y="374" class="lbl">DATA &amp; ANALYTICS</text>
<circle cx="344" cy="402" r="4" fill="#58a6ff"/>
<text x="360" y="406" font-size="15">Python</text>
<circle cx="344" cy="428" r="4" fill="#58a6ff"/>
<text x="360" y="432" font-size="15">Pandas</text>
<circle cx="344" cy="454" r="4" fill="#58a6ff"/>
<text x="360" y="458" font-size="15">NumPy</text>
<circle cx="344" cy="480" r="4" fill="#58a6ff"/>
<text x="360" y="484" font-size="15">Scikit-learn</text>
<circle cx="344" cy="506" r="4" fill="#58a6ff"/>
<text x="360" y="510" font-size="15">Power BI</text>
<circle cx="344" cy="532" r="4" fill="#58a6ff"/>
<text x="360" y="536" font-size="15">SQL</text>
<text x="640" y="374" class="lbl">CLOUD &amp; TOOLS</text>
<circle cx="644" cy="402" r="4" fill="#bc8cff"/>
<text x="660" y="406" font-size="15">AWS</text>
<circle cx="644" cy="428" r="4" fill="#bc8cff"/>
<text x="660" y="432" font-size="15">Docker</text>
<circle cx="644" cy="454" r="4" fill="#bc8cff"/>
<text x="660" y="458" font-size="15">GitHub Actions</text>
<circle cx="644" cy="480" r="4" fill="#bc8cff"/>
<text x="660" y="484" font-size="15">PostgreSQL</text>
<circle cx="644" cy="506" r="4" fill="#bc8cff"/>
<text x="660" y="510" font-size="15">MySQL</text>
<circle cx="644" cy="532" r="4" fill="#bc8cff"/>
<text x="660" y="536" font-size="15">REST APIs</text>
<text x="40" y="636" class="m" font-size="12" style="fill:#7d8590">github.com/Sekomane</text>
<text x="860" y="636" text-anchor="end" class="m" font-size="12" style="fill:#7d8590">sekomanerorisang904@gmail.com</text>
</g>
<rect x=".5" y=".5" width="899" height="659" rx="18" fill="none" stroke="#30363d"/>
</svg>